#N canvas 333 48 991 730 10;
#X declare -lib mrpeach;
#X obj 3 -23 serialosc_pd;
#X obj 774 -15 output~;
#X obj 64 313 s~ master;
#X obj 737 -71 r~ master;
#X obj 4 171 sample;
#X obj 216 171 sample;
#X obj 429 171 sample;
#X obj 4 207 sample;
#X obj 216 207 sample;
#X obj 429 207 sample;
#X obj 642 207 sample;
#X obj 642 171 sample;
#X obj 273 -19 bng 30 250 50 0 empty empty empty 17 7 0 10 -13330 -1
-1;
#X obj 308 -19 bng 30 250 50 0 empty empty empty 17 7 0 10 -13330 -1
-1;
#X obj 343 -19 bng 30 250 50 0 empty empty empty 17 7 0 10 -13330 -1
-1;
#X obj 378 -19 bng 30 250 50 0 empty empty empty 17 7 0 10 -13330 -1
-1;
#X obj 273 16 bng 30 250 50 0 empty empty empty 17 7 0 10 -13330 -1
-1;
#X obj 308 16 bng 30 250 50 0 empty empty empty 17 7 0 10 -13330 -1
-1;
#X obj 343 16 bng 30 250 50 0 empty empty empty 17 7 0 10 -13330 -1
-1;
#X obj 378 16 bng 30 250 50 0 empty empty empty 17 7 0 10 -13330 -1
-1;
#X obj -72 425 unpack f f f;
#X floatatom -72 478 5 0 0 0 - - -;
#X floatatom -38 478 5 0 0 0 - - -;
#X floatatom -3 478 5 0 0 0 - - -;
#X obj 654 526 s monome_led_msg;
#X obj -74 -66 r monome_led_msg;
#X obj 656 586 routeOSC /monome/grid/key;
#X msg 655 357 /grid/led/set 0 0 0;
#X msg 729 432 /grid/led/all 1;
#X msg 739 467 /grid/led/all 0;
#X obj -102 163 s press_ary;
#X obj 500 290 r press_ary;
#X obj 502 348 route 0;
#X obj 502 390 route 0;
#X obj 503 424 sel 1;
#X msg 503 480 /grid/led/set 0 0 \$1;
#X obj 503 452 tgl 15 0 empty empty empty 17 7 0 10 -262144 -1 -1 0
1;
#X msg 237 349 \$2 \$1 \$3;
#X obj 238 394 route 6 7;
#N canvas 729 85 571 789 toggles 0;
#X obj 19 24 inlet;
#X msg 27 87 \$3 \$2 \$1;
#X obj 26 114 route 1;
#X obj 34 177 unpack;
#X obj 69 221 * 16;
#X obj 34 253 +;
#X floatatom 30 288 5 0 0 0 - - -;
#X obj 32 351 t f f;
#X obj 263 32 table grid 128;
#X obj 32 403 tabread grid;
#X floatatom 35 438 5 0 0 0 - - -;
#X obj 38 473 == 0;
#X obj 207 434 t f f;
#X obj 266 484 / 16;
#X obj 269 512 int;
#X obj 203 515 % 16;
#X obj 211 586 pack f f f;
#X msg 204 628 \$2 \$3 \$1;
#X obj 200 667 outlet;
#X obj 28 663 tabwrite grid;
#X connect 0 0 1 0;
#X connect 1 0 2 0;
#X connect 2 0 3 0;
#X connect 3 0 5 0;
#X connect 3 1 4 0;
#X connect 4 0 5 1;
#X connect 5 0 6 0;
#X connect 6 0 7 0;
#X connect 7 0 9 0;
#X connect 7 1 12 0;
#X connect 7 1 19 1;
#X connect 9 0 10 0;
#X connect 10 0 11 0;
#X connect 11 0 16 0;
#X connect 11 0 19 0;
#X connect 12 0 15 0;
#X connect 12 1 13 0;
#X connect 13 0 14 0;
#X connect 14 0 16 2;
#X connect 15 0 16 1;
#X connect 16 0 17 0;
#X connect 17 0 18 0;
#X restore 288 432 pd toggles;
#X msg 292 486 /grid/led/set \$1 \$2 \$3;
#X obj 235 310 r press_ary;
#X obj 459 -60 route 0 1 2 3 4 5 6 7;
#X msg 124 417 \$2 \$1;
#X obj 127 463 route 1;
#X connect 0 1 30 0;
#X connect 3 0 1 0;
#X connect 3 0 1 1;
#X connect 4 0 2 0;
#X connect 5 0 2 0;
#X connect 6 0 2 0;
#X connect 7 0 2 0;
#X connect 8 0 2 0;
#X connect 9 0 2 0;
#X connect 10 0 2 0;
#X connect 11 0 2 0;
#X connect 12 0 4 1;
#X connect 13 0 5 1;
#X connect 14 0 6 1;
#X connect 15 0 11 1;
#X connect 16 0 7 1;
#X connect 17 0 8 1;
#X connect 18 0 9 1;
#X connect 19 0 10 1;
#X connect 20 0 21 0;
#X connect 20 1 22 0;
#X connect 20 2 23 0;
#X connect 25 0 0 0;
#X connect 27 0 24 0;
#X connect 28 0 24 0;
#X connect 29 0 24 0;
#X connect 31 0 32 0;
#X connect 32 0 33 0;
#X connect 33 0 34 0;
#X connect 34 0 36 0;
#X connect 35 0 24 0;
#X connect 36 0 35 0;
#X connect 37 0 38 0;
#X connect 38 1 43 0;
#X connect 38 2 39 0;
#X connect 39 0 40 0;
#X connect 40 0 24 0;
#X connect 41 0 37 0;
#X connect 41 0 20 0;
#X connect 42 0 12 0;
#X connect 43 0 44 0;
#X connect 44 0 42 0;
#X coords 0 -1 1 1 850 300 2 0 -25;
