#N canvas 615 120 682 583 10;
#X obj 320 45 openpanel;
#X obj 320 114 soundfiler;
#X floatatom 352 140 5 0 0 0 - - -;
#X obj 320 188 expr 44100 / $f1;
#X floatatom 364 226 5 0 0 0 - - -;
#X obj 320 310 phasor~;
#X obj 320 357 *~;
#X obj 320 439 *~;
#X obj 479 374 snapshot~;
#X obj 479 314 tgl 15 0 empty empty empty 17 7 0 10 -262144 -1 -1 1
1;
#X floatatom 479 409 5 0 0 0 - - -;
#X obj 479 444 /;
#X floatatom 479 472 5 0 0 0 - - -;
#X obj 532 488 hsl 128 15 0 1 0 0 empty empty empty -2 -8 0 10 -262144
-1 -1 0 1;
#X obj 479 345 metro 1;
#X obj 476 259 delay;
#X msg 407 293 0;
#X msg 503 210 1000;
#X obj 503 242 /;
#X msg 380 276 0;
#X obj 320 16 inlet load_sample;
#X obj 352 165 s \$0-sampleSize;
#X obj 530 428 r \$0-sampleSize;
#X obj 335 332 r \$0-sampleSize;
#X obj 464 127 inlet;
#X obj 584 331 table \$0-sample;
#X obj 320 389 tabread4~ \$0-sample;
#X obj 320 69 pack s \$0;
#X msg 320 91 read -resize \$1 \$2-sample;
#X text 164 262 prevent play on load-------------->;
#X obj 479 286 loadbang;
#X obj 320 467 outlet~;
#X obj 2 75 cnv 15 300 60 empty empty empty 20 12 0 14 -204786 -66577
0;
#X obj 73 103 bng 15 250 50 0 empty empty load 17 7 0 10 -262144 -1
-1;
#X obj 120 104 hsl 128 15 0 1 0 0 empty empty empty -2 -8 0 10 -262144
-1 -1 12000 1;
#X text 251 102 lvl;
#X connect 0 0 27 0;
#X connect 1 0 2 0;
#X connect 1 0 3 0;
#X connect 2 0 21 0;
#X connect 3 0 4 0;
#X connect 3 0 5 0;
#X connect 3 0 19 0;
#X connect 4 0 18 1;
#X connect 4 0 5 0;
#X connect 5 0 6 0;
#X connect 6 0 8 0;
#X connect 6 0 26 0;
#X connect 7 0 31 0;
#X connect 8 0 10 0;
#X connect 9 0 14 0;
#X connect 10 0 11 0;
#X connect 11 0 12 0;
#X connect 12 0 13 0;
#X connect 14 0 8 0;
#X connect 15 0 19 0;
#X connect 16 0 5 1;
#X connect 17 0 18 0;
#X connect 18 0 15 1;
#X connect 19 0 5 0;
#X connect 20 0 0 0;
#X connect 22 0 11 1;
#X connect 23 0 6 1;
#X connect 24 0 17 0;
#X connect 24 0 15 0;
#X connect 24 0 16 0;
#X connect 24 0 4 0;
#X connect 26 0 7 0;
#X connect 27 0 28 0;
#X connect 28 0 1 0;
#X connect 30 0 9 0;
#X connect 33 0 0 0;
#X connect 34 0 7 1;
#X coords 0 -1 1 1 205 30 2 70 100;
