#N canvas 125 62 1308 764 10;
#X declare -lib mrpeach;
#X obj 409 -247 cnv 15 200 200 empty empty tilt_handler 100 190 0 14
-261682 -99865 0;
#X obj 421 -245 r \$0-tilt;
#X obj 421 -161 unpack f f f f;
#X obj 427 -204 spigot;
#X obj 427 -182 print DBG_XYZ;
#X obj 460 -225 r \$0-dbgtilt;
#X obj 207 -246 cnv 15 200 200 empty empty key_handler 110 190 0 14
-204786 -66577 0;
#X obj 229 -224 unpack f f f;
#X obj 342 -155 s \$0-x;
#X obj 342 -176 s \$0-y;
#X obj 342 -196 s \$0-s;
#X obj 229 -244 r \$0-key;
#X obj 235 -176 pack f f f;
#X obj 235 -134 spigot;
#X obj 235 -114 print DBG_XYZ;
#X obj 269 -155 r \$0-dbgxys;
#X obj 5 -247 cnv 15 200 250 empty empty load 160 240 0 14 -203904
-128992 0;
#X obj 18 -244 loadbang;
#X obj 81 -198 import mrpeach;
#X msg 49 -116 12002;
#X obj 72 -155 s \$0-listen_host;
#X obj 33 -51 s \$0-load_port;
#X obj 1107 -247 cnv 15 140 260 empty empty net_io 90 250 0 14 -191407
-66577 0;
#X obj 1125 -245 r \$0-osc_out;
#X obj 1132 -140 r \$0-udp_out;
#X obj 1125 -37 s \$0-cxn_state;
#X obj 723 -247 cnv 15 180 270 empty empty cxn_handler 90 260 0 14
-261234 -66577 0;
#X obj 790 -149 list trim;
#X obj 790 -199 t b f;
#X obj 790 -171 pack s f;
#X msg 727 -106 connect;
#X obj 727 -85 list append;
#X obj 727 -63 list trim;
#X obj 727 -127 r \$0-connect;
#X obj 727 2 s \$0-udp_out;
#X msg 733 -22 disconnect;
#X obj 733 -43 r \$0-disconnect;
#X obj 905 -247 cnv 15 200 260 empty empty osc_out 140 250 0 14 -232576
-66577 0;
#X obj 923 -91 list trim;
#X obj 923 -112 list append;
#X obj 923 -245 r \$0-to_sosc;
#X obj 923 -49 list prepend;
#X obj 923 -28 list trim;
#X msg 992 -69 send;
#X obj 992 -90 loadbang;
#X obj 923 -7 s \$0-osc_out;
#X obj 986 -132 list trim;
#X obj 986 -182 t b f;
#X obj 986 -154 pack s f;
#X obj 986 -225 r \$0-listen_port;
#X obj 956 -204 r \$0-listen_host;
#X msg 33 -74 9999;
#X obj 1137 -100 spigot;
#X obj 1170 -120 r \$0-dbgfull;
#X obj 1137 -79 print DBG_UDP;
#X obj 1132 -204 spigot;
#X obj 1165 -224 r \$0-dbgosc;
#X obj 1132 -182 print DBG_TO_SOSC;
#X obj 207 -44 cnv 15 510 410 empty empty serialosc_reader 380 400
0 14 -105728 -66577 0;
#X obj 247 22 unpackOSC;
#X obj 370 223 routeOSC /device /add /remove;
#X obj 227 1 udpreceive 9999;
#X obj 427 265 print ADD;
#X obj 484 244 print DEL;
#X obj 227 -41 r \$0-listen_port;
#X msg 227 -20 port \$1;
#X text 429 283 adding doesn't work. why not?;
#X obj 790 -242 r \$0-cxn_port;
#X obj 760 -221 r \$0-cxn_host;
#X obj 49 -95 s \$0-cxn_port;
#X obj 65 -136 s \$0-cxn_host;
#X obj 370 244 t a b;
#X obj 370 288 zl slice;
#X msg 397 265 2;
#X obj 370 309 zl rev;
#X obj 611 -247 cnv 15 110 200 empty empty debug 60 190 0 14 -191407
-66577 0;
#X obj 628 -100 s \$0-dbgfull;
#X obj 628 -121 s \$0-dbgosc;
#X obj 628 -141 s \$0-dbgxys;
#X obj 628 -161 s \$0-dbgtilt;
#X obj 628 -201 tgl 15 0 empty empty dbg_osc 17 7 0 10 -262144 -1 -1
0 1;
#X obj 628 -183 tgl 15 0 empty empty dbg_full 17 7 0 10 -262144 -1
-1 0 1;
#X obj 628 -220 tgl 15 0 empty empty dbg_xyz 17 7 0 10 -262144 -1 -1
0 1;
#X obj 628 -238 tgl 15 0 empty empty dbg_tilt 17 7 0 10 -262144 -1
-1 0 1;
#X obj 377 117 routeOSC /id /size /host /port /prefix /rotation;
#X obj 453 201 s \$0-d_size;
#X obj 567 159 s \$0-d_prefix;
#X obj 614 137 s \$0-d_rotation;
#X obj 424 137 sum;
#X obj 424 157 select 16 24 32;
#X msg 424 177 64;
#X msg 453 177 128;
#X msg 482 177 256;
#X msg 511 177 -1;
#X obj 567 137 l2s;
#X obj 5 5 cnv 15 200 220 empty empty dynamic_prefix 80 210 0 14 -261234
-66577 0;
#X obj 92 26 r \$0-d_prefix;
#X obj 23 46 list prepend;
#X obj 23 126 l2s;
#X msg 38 106 symbol;
#X obj 38 86 loadbang;
#X obj 23 66 zl slice 2;
#X obj 23 146 list;
#X obj 23 166 list trim;
#X obj 23 7 r \$0-prefix_osc_out;
#X obj 23 186 s \$0-osc_out;
#X obj 415 309 s \$0-d_port;
#X obj 370 331 s \$0-d_name;
#X obj 1125 -161 packOSC;
#X obj 1125 -58 udpsend;
#X msg 65 -177 localhost;
#X obj 307 54 routeOSC /monome /serialosc /sys;
#X obj 606 240 print UNHANDLED;
#X obj 307 97 s \$0-key;
#X obj 377 95 s \$0-tilt;
#X obj 307 75 routeOSC /grid/key /tilt;
#X obj 227 211 spigot;
#X obj 260 191 r \$0-dbgfull;
#X obj 227 232 print DBG_FULL;
#X obj 247 146 spigot;
#X obj 280 126 r \$0-dbgosc;
#X obj 247 167 print DBG_FROM_OSC;
#X obj 448 -140 s \$0-tilt_pitch;
#X obj 475 -119 s \$0-tilt_roll;
#X obj 502 -98 s \$0-tilt_inv;
#X obj 5 227 cnv 15 200 140 empty empty monitor 140 130 0 14 -204800
-66577 0;
#X floatatom 10 238 5 0 0 3 row #0-x -;
#X floatatom 45 238 5 0 0 3 col #0-y -;
#X floatatom 80 238 5 0 0 3 state #0-s -;
#X floatatom 10 284 5 0 0 3 roll #0-tilt_roll -;
#X floatatom 45 284 5 0 0 3 pitch #0-tilt_pitch -;
#X floatatom 80 284 5 0 0 3 inv #0-tilt_inv -;
#X obj 119 254 pack f f f;
#X obj 119 300 pack f f f;
#X obj 10 323 inlet;
#X obj 10 344 s \$0-prefix_osc_out;
#X obj 323 0 r \$0-d_prefix_mod;
#X msg 323 20 set /\$1;
#X obj 5 368 cnv 15 400 140 empty empty serialosc_handshake 240 130
0 14 -261234 -66577 0;
#X obj 244 466 s \$0-to_sosc;
#X obj 102 385 bng 15 250 50 0 empty empty osc_connect 17 7 0 10 -262144
-1 -1;
#X msg 244 424 /serialosc/list;
#X msg 252 445 /serialosc/notify;
#X obj 244 385 bng 15 250 50 0 empty empty list_devices 17 7 0 10 -262144
-1 -1;
#X obj 252 404 bng 15 250 50 0 empty empty req_osc_notify 17 7 0 10
-262144 -1 -1;
#X msg 121 446 12002;
#X obj 121 467 s \$0-cxn_port;
#X obj 102 405 t b b b;
#X obj 141 426 s \$0-disconnect;
#X obj 102 487 s \$0-connect;
#X obj 18 379 delay 100;
#X obj 18 401 t b b b b b;
#X obj 18 -222 t b b b b b;
#X obj 720 77 cnv 15 260 180 empty empty _hello 206 170 0 14 -261682
-66577 0;
#X obj 726 140 nbx 5 14 1025 65535 0 0 \$0-listen_port \$0-load_port
listen_port 0 -8 0 10 -261682 -1 -1 9999 256;
#X obj 726 77 tgl 15 0 empty \$0-cxn_state udp_connection 17 7 0 10
-261682 -1 -1 1 1;
#X msg 993 406 /sys/info;
#X obj 726 419 s \$0-cxn_host;
#X obj 726 440 s \$0-listen_host;
#X obj 1149 249 s \$0-connect;
#X obj 1163 229 s \$0-cxn_port;
#X obj 726 170 nbx 5 14 -1e+37 1e+37 0 0 empty \$0-d_port device_port
0 -8 0 10 -262144 -1 -1 0 256;
#X obj 993 387 bng 15 250 50 0 empty empty sys_info 17 7 0 10 -262144
-1 -1;
#X obj 813 121 bng 24 250 50 0 empty empty device_connect 26 8 0 16
-261234 -128992 -1;
#X obj 1163 207 i;
#X obj 1178 166 s \$0-disconnect;
#X obj 993 427 s \$0-to_sosc;
#X obj 876 236 nbx 3 14 0 270 0 0 empty \$0-d_rotation rotation 0 -8
0 10 -262144 -1 -1 0 256;
#X obj 876 202 nbx 3 14 0 512 0 0 empty \$0-d_size size 0 -8 0 10 -262144
-1 -1 0 256;
#X symbolatom 726 200 10 0 0 2 prefix #0-d_prefix -;
#X msg 926 284 0;
#X msg 913 264 90;
#X msg 913 304 270;
#X msg 896 284 180;
#X msg 963 286 /sys/rotation \$1;
#X symbolatom 726 235 10 0 0 2 new_prefix - #0-d_prefix_mod;
#X msg 993 306 /sys/prefix \$1;
#X obj 1020 347 s \$0-osc_out;
#X obj 993 327 t b a;
#X obj 813 346 s \$0-prefix_osc_out;
#X obj 726 30 loadbang;
#X msg 726 53 set monome;
#X obj 1178 186 r \$0-d_port;
#X obj 1178 401 r \$0-listen_port;
#X obj 1192 296 r \$0-listen_host;
#X msg 1121 381 send /sys/port;
#X obj 1121 420 pack s s f;
#X obj 1121 442 list trim;
#X obj 1135 358 list trim;
#X msg 1135 276 send /sys/host;
#X obj 1121 467 s \$0-osc_out;
#X msg 1093 169 0;
#X obj 813 148 bng 15 250 50 0 empty empty all_on 17 7 0 10 -261682
-1 -1;
#X obj 1013 238 s \$0-prefix_osc_out;
#X msg 1013 216 /tilt/set 0 \$1;
#X obj 993 266 r \$0-d_prefix_mod;
#X obj 1135 337 pack s s s;
#X obj 1192 317 symbol;
#X obj 823 199 bng 15 250 50 0 empty empty 90 17 7 0 10 -262144 -1
-1;
#X obj 842 217 bng 15 250 50 0 0 empty 0 17 7 0 10 -262144 -1 -1;
#X obj 823 235 bng 15 250 50 0 empty empty 270 17 7 0 10 -262144 -1
-1;
#X obj 804 217 bng 15 250 50 0 empty empty 180 17 7 0 10 -262144 -1
-1;
#X symbolatom 726 108 10 0 0 2 host - -;
#X msg 792 53 set localhost;
#X obj 923 201 hradio 15 1 0 2 empty empty tilt 0 -8 0 10 -262144 -1
-1 0;
#X text 926 200 0;
#X text 942 200 1;
#X obj 119 275 outlet;
#X obj 119 321 outlet;
#X obj 187 253 r \$0-d_size;
#X obj 187 273 outlet;
#N canvas 903 846 487 36 NFO 0;
#X text 1 -3 serialosc_pd.pd. version 0.1. Marc J. Szalkiewicz. Handles
connection to 1 grid device.;
#X restore 72 -244 pd NFO;
#X obj 1079 145 t b b b b b b b b;
#X obj 1079 191 s \$0-donebang;
#X obj 185 320 outlet;
#X obj 185 300 r \$0-donebang;
#X msg 813 324 /grid/led/all 1;
#X obj 792 389 s \$0-prefix_osc_out;
#X msg 792 367 /grid/led/all 0;
#X obj 813 167 bng 15 250 50 0 empty empty all_off 17 7 0 10 -261682
-1 -1;
#X connect 1 0 2 0;
#X connect 1 0 3 0;
#X connect 2 1 122 0;
#X connect 2 2 123 0;
#X connect 2 3 124 0;
#X connect 3 0 4 0;
#X connect 5 0 3 1;
#X connect 7 0 12 0;
#X connect 7 0 8 0;
#X connect 7 1 9 0;
#X connect 7 1 12 1;
#X connect 7 2 10 0;
#X connect 7 2 12 2;
#X connect 11 0 7 0;
#X connect 12 0 13 0;
#X connect 13 0 14 0;
#X connect 15 0 13 1;
#X connect 17 0 152 0;
#X connect 19 0 69 0;
#X connect 23 0 55 0;
#X connect 23 0 108 0;
#X connect 24 0 52 0;
#X connect 24 0 109 0;
#X connect 27 0 31 1;
#X connect 28 0 29 0;
#X connect 28 1 29 1;
#X connect 29 0 27 0;
#X connect 30 0 31 0;
#X connect 31 0 32 0;
#X connect 32 0 34 0;
#X connect 33 0 30 0;
#X connect 35 0 34 0;
#X connect 36 0 35 0;
#X connect 38 0 41 0;
#X connect 39 0 38 0;
#X connect 40 0 39 0;
#X connect 41 0 42 0;
#X connect 42 0 45 0;
#X connect 43 0 41 1;
#X connect 44 0 43 0;
#X connect 46 0 39 1;
#X connect 47 0 48 0;
#X connect 47 1 48 1;
#X connect 48 0 46 0;
#X connect 49 0 47 0;
#X connect 50 0 48 0;
#X connect 51 0 21 0;
#X connect 52 0 54 0;
#X connect 53 0 52 1;
#X connect 55 0 57 0;
#X connect 56 0 55 1;
#X connect 59 0 119 0;
#X connect 59 0 111 0;
#X connect 60 0 71 0;
#X connect 60 1 62 0;
#X connect 60 2 63 0;
#X connect 60 3 112 0;
#X connect 61 0 59 0;
#X connect 61 0 116 0;
#X connect 64 0 65 0;
#X connect 65 0 61 0;
#X connect 67 0 28 0;
#X connect 68 0 29 0;
#X connect 71 0 72 0;
#X connect 71 1 73 0;
#X connect 72 0 74 0;
#X connect 72 1 106 0;
#X connect 73 0 72 1;
#X connect 74 0 107 0;
#X connect 80 0 77 0;
#X connect 81 0 76 0;
#X connect 82 0 78 0;
#X connect 83 0 79 0;
#X connect 84 1 88 0;
#X connect 84 4 94 0;
#X connect 84 5 87 0;
#X connect 84 6 112 0;
#X connect 88 0 89 0;
#X connect 89 0 90 0;
#X connect 89 1 91 0;
#X connect 89 2 92 0;
#X connect 89 3 93 0;
#X connect 90 0 85 0;
#X connect 91 0 85 0;
#X connect 92 0 85 0;
#X connect 93 0 85 0;
#X connect 94 0 86 0;
#X connect 96 0 97 1;
#X connect 97 0 101 0;
#X connect 98 0 102 0;
#X connect 99 0 98 1;
#X connect 100 0 99 0;
#X connect 101 0 98 0;
#X connect 101 1 102 1;
#X connect 102 0 103 0;
#X connect 103 0 105 0;
#X connect 104 0 97 0;
#X connect 108 0 109 0;
#X connect 109 0 25 0;
#X connect 110 0 20 0;
#X connect 110 0 70 0;
#X connect 111 0 115 0;
#X connect 111 1 60 0;
#X connect 111 2 84 0;
#X connect 111 3 112 0;
#X connect 115 0 113 0;
#X connect 115 1 114 0;
#X connect 115 2 112 0;
#X connect 116 0 118 0;
#X connect 117 0 116 1;
#X connect 119 0 121 0;
#X connect 120 0 119 1;
#X connect 126 0 132 0;
#X connect 127 0 132 1;
#X connect 128 0 132 2;
#X connect 129 0 133 0;
#X connect 130 0 133 1;
#X connect 131 0 133 2;
#X connect 132 0 207 0;
#X connect 133 0 208 0;
#X connect 134 0 135 0;
#X connect 136 0 137 0;
#X connect 137 0 111 0;
#X connect 140 0 147 0;
#X connect 141 0 139 0;
#X connect 142 0 139 0;
#X connect 143 0 141 0;
#X connect 144 0 142 0;
#X connect 145 0 146 0;
#X connect 147 0 149 0;
#X connect 147 1 145 0;
#X connect 147 2 148 0;
#X connect 150 0 151 0;
#X connect 151 2 143 0;
#X connect 151 3 144 0;
#X connect 151 4 140 0;
#X connect 152 0 150 0;
#X connect 152 1 51 0;
#X connect 152 2 19 0;
#X connect 152 3 110 0;
#X connect 152 4 18 0;
#X connect 156 0 166 0;
#X connect 162 0 156 0;
#X connect 163 0 212 0;
#X connect 164 0 160 0;
#X connect 170 0 174 0;
#X connect 171 0 174 0;
#X connect 172 0 174 0;
#X connect 173 0 174 0;
#X connect 174 0 178 0;
#X connect 176 0 178 0;
#X connect 178 0 162 0;
#X connect 178 1 177 0;
#X connect 180 0 181 0;
#X connect 180 0 203 0;
#X connect 181 0 175 0;
#X connect 182 0 164 1;
#X connect 183 0 186 2;
#X connect 184 0 197 0;
#X connect 185 0 186 0;
#X connect 186 0 187 0;
#X connect 187 0 190 0;
#X connect 188 0 190 0;
#X connect 189 0 196 0;
#X connect 191 0 204 0;
#X connect 192 0 216 0;
#X connect 194 0 193 0;
#X connect 195 0 176 0;
#X connect 196 0 188 0;
#X connect 197 0 196 2;
#X connect 198 0 171 0;
#X connect 199 0 170 0;
#X connect 200 0 172 0;
#X connect 201 0 173 0;
#X connect 202 0 157 0;
#X connect 202 0 158 0;
#X connect 203 0 202 0;
#X connect 204 0 194 0;
#X connect 209 0 210 0;
#X connect 212 0 213 0;
#X connect 212 1 191 0;
#X connect 212 2 162 0;
#X connect 212 3 185 0;
#X connect 212 4 189 0;
#X connect 212 5 159 0;
#X connect 212 6 164 0;
#X connect 212 7 165 0;
#X connect 215 0 214 0;
#X connect 216 0 179 0;
#X connect 218 0 217 0;
#X connect 219 0 218 0;
#X coords 0 -1 1 1 260 186 1 720 74;
